<svg viewBox="0 0 279.86 68.09" xmlns="http://www.w3.org/2000/svg"><g fill="#fff"><path d="m37.66 47.39a10 10 0 0 0 -6.4 2.3 12.91 12.91 0 0 0 -2 2.1 8.3 8.3 0 0 1 -3.4 2 6.92 6.92 0 0 1 -4.9-.4c-2.2-1-3.3-3.2-5.4-4.5a10.4 10.4 0 0 0 -12.1 1.11 10.29 10.29 0 0 0 6.8 18 10 10 0 0 0 6.4-2.3c.9-.7 1.4-1.6 2.3-2.4a7.82 7.82 0 0 1 3.5-1.8 6.55 6.55 0 0 1 5.1.8c2 1.1 3.1 3.2 5.1 4.3a10.41 10.41 0 0 0 12.1-1.4 10.54 10.54 0 0 0 2.6-11.3 10.68 10.68 0 0 0 -9.7-6.5"/><path d="m28.66 5.09a10.39 10.39 0 0 0 -1.1 7.5 18.87 18.87 0 0 1 .9 3.4 7.11 7.11 0 0 1 -.6 3.8 8.24 8.24 0 0 1 -4.1 3.7c-1 .4-2.2.4-3.3.8a9.41 9.41 0 0 0 -3.1 1.7 10.42 10.42 0 0 0 -3.3 11.7 10.32 10.32 0 0 0 19.6-.8 11.37 11.37 0 0 0 .3-3.7 27.92 27.92 0 0 0 -1-3.9 8.14 8.14 0 0 1 1.1-5.9 6.61 6.61 0 0 1 2.4-2 9.18 9.18 0 0 1 3.2-1 10.06 10.06 0 0 0 5.7-3.5 10.38 10.38 0 0 0 .8-12c-3.8-6.6-13.7-6.5-17.5.2"/><path d="m42.36 39.09a10.19 10.19 0 0 0 5.2 4.4 16.36 16.36 0 0 0 2.8.7 8.91 8.91 0 0 1 3.3 1.8 6.15 6.15 0 0 1 2.2 4.6 8.72 8.72 0 0 1 -.7 3.9 10.25 10.25 0 0 0 7.84 13.3 10.59 10.59 0 0 0 10.9-4.9 10.18 10.18 0 0 0 -6.9-15.2c-2.1-.4-4.4-1.3-5.5-3.3a7.66 7.66 0 0 1 -.6-6.6 9.75 9.75 0 0 0 0-7.5 10.28 10.28 0 1 0 -18.5 8.8"/><path d="m214.56 33.09h-6a.43.43 0 0 0 -.4.4v-.1l-8.1 24.2c-.1.1-.2.2-.3.2h-.1c-.2 0-.3-.1-.3-.2l-8.1-24.2v.1a.43.43 0 0 0 -.4-.4h-6a.43.43 0 0 0 -.4.4v.1l.1.2 12.3 33.6c.1.2.2.3.4.2h4.6a.37.37 0 0 0 .5-.2l12.3-33.6.1-.3v-.1c.24-.1 0-.3-.2-.3z"/><path d="m146.46 38.39a.37.37 0 0 0 .1-.3v-4.6a.43.43 0 0 0 -.4-.4h-23.9a.43.43 0 0 0 -.4.4v4.8a.43.43 0 0 0 .4.4h16c.1 0 .3.1.3.2s0 .3 0 .4l-17.5 23.2v.1c0 .1-.1.1-.1.2v4.7a.43.43 0 0 0 .4.4h24.9a.43.43 0 0 0 .4-.4v-5.2a.43.43 0 0 0 -.4-.4h-17c-.1 0-.3-.1-.3-.2s0-.3 0-.4z"/><path d="m99.26 32.69c-4.8 0-8.3 1.2-10.9 4.2-.1.1-.2.2-.2.3s.1-.1.1 0h-.1c-.1.2-.1.4.1.5l4.1 3.1.3.2c.2.1.4.1.5-.1 1.1-1.6 3-2.3 6.6-2.3 2.6 0 4.4.3 5.7 1.1a4.13 4.13 0 0 1 1.9 3.8v3.7a.35.35 0 0 1 -.4.4h-9.8c-7.4 0-11.1 4.6-11.1 10.1 0 5.9 4.4 10.4 12.1 10.4 4.8 0 7-1.1 8.4-3.4.1-.1.2-.2.3-.2h.1a.35.35 0 0 1 .4.4v2.4a.43.43 0 0 0 .4.4h5.6a.43.43 0 0 0 .4-.4v-23.29c-.2-8.51-5.76-11.21-14.5-11.31zm7.9 23c0 2.8-.5 4.5-1.9 5.4s-3.4 1.1-6.4 1.1a8.73 8.73 0 0 1 -5.4-1.4 4.08 4.08 0 0 1 -1.7-3.4 4 4 0 0 1 1.6-3.4 8.1 8.1 0 0 1 4.8-1.2h8.5a.35.35 0 0 1 .4.4z"/><path d="m165.06 32.69c-4.8 0-8.3 1.2-10.9 4.2l-.3.3s.1-.1.1 0h-.1c-.1.2-.1.4.1.5l4.1 3.1.3.2c.2.1.4.1.5-.1 1.1-1.6 3-2.3 6.6-2.3 2.6 0 4.4.3 5.7 1.1a4.13 4.13 0 0 1 1.9 3.8v3.7a.35.35 0 0 1 -.4.4h-9.8c-7.4 0-11.1 4.6-11.1 10.1 0 5.9 4.4 10.4 12.1 10.4 4.8 0 7-1.1 8.4-3.4.1-.1.2-.2.3-.2h.1a.35.35 0 0 1 .4.4v2.4a.43.43 0 0 0 .4.4h5.6a.43.43 0 0 0 .4-.4v-23.29c-.1-8.51-5.7-11.21-14.4-11.31zm8 23c0 2.8-.5 4.5-1.9 5.4s-3.4 1.1-6.4 1.1a8.73 8.73 0 0 1 -5.4-1.4 4.08 4.08 0 0 1 -1.7-3.4 4 4 0 0 1 1.6-3.4 8.1 8.1 0 0 1 4.8-1.2h8.5a.35.35 0 0 1 .4.4v2.5z"/><path d="m232.56 32.69c-6.7 0-14.2 4.2-14.2 17.8 0 14.3 8.2 17.6 15.3 17.6a15.78 15.78 0 0 0 11.7-4.8l.2-.2c.1-.2.1-.4-.1-.5l-4.1-3.5a.45.45 0 0 0 -.5 0 11.63 11.63 0 0 1 -7.5 3.1 8.29 8.29 0 0 1 -8.8-9.1.35.35 0 0 1 .4-.4h21.3a.43.43 0 0 0 .4-.4v-5.1c.1-8.9-6.5-14.5-14.1-14.5zm7.7 14.8a.37.37 0 0 1 -.3.1h-14.9a.35.35 0 0 1 -.4-.4c.1-5.5 3.5-8.6 7.8-8.6s7.6 3.1 7.8 8.6a.19.19 0 0 1 0 .3z"/><path d="m265.36 32.69c-4.8 0-8.3 1.2-10.9 4.2l-.3.3s.1-.1.1 0h-.1c-.1.2-.1.4.1.5l4.1 3.1.3.2h.1c.2.1.4.1.5-.1 1.1-1.6 3-2.3 6.6-2.3 2.6 0 4.4.3 5.7 1.1a4.13 4.13 0 0 1 1.9 3.8v3.7a.35.35 0 0 1 -.4.4h-9.8c-7.4 0-11.1 4.6-11.1 10.1 0 5.9 4.4 10.4 12.1 10.4 4.8 0 7-1.1 8.4-3.4.1-.1.2-.2.3-.2h.1a.35.35 0 0 1 .4.4v2.4a.43.43 0 0 0 .4.4h5.6a.43.43 0 0 0 .4-.4v-23.29c-.2-8.51-5.8-11.21-14.5-11.31zm8 23c0 2.8-.5 4.5-1.9 5.4s-3.4 1.1-6.4 1.1a8.73 8.73 0 0 1 -5.4-1.4 4.08 4.08 0 0 1 -1.7-3.4 4 4 0 0 1 1.6-3.4 8.1 8.1 0 0 1 4.8-1.2h8.5a.35.35 0 0 1 .4.4v2.5z"/></g></svg>